<svg xmlns="http://www.w3.org/2000/svg" viewBox="-20 -20 1360 1040" width="1360" height="1040" font-family="Virgil, Segoe UI Emoji, sans-serif">
<rect x="-20" y="-20" width="1360" height="1040" fill="#ffffff"/>
<defs>
  <marker id="arrowhead" markerWidth="10" markerHeight="10" refX="9" refY="5" orient="auto" markerUnits="strokeWidth">
    <path d="M 0 0 L 10 5 L 0 10 z" fill="#1e1e1e"/>
  </marker>
</defs>
<rect x="180" y="220" width="200" height="80" rx="8" ry="8" fill="#3b82f6" stroke="#1e3a5f" stroke-width="2"/>
<polygon points="440.0,230 470,260.0 440.0,290 410,260.0" fill="#fef3c7" stroke="#b45309" stroke-width="2"/>
<rect x="620" y="220" width="200" height="80" rx="8" ry="8" fill="#3b82f6" stroke="#1e3a5f" stroke-width="2"/>
<polygon points="880.0,230 910,260.0 880.0,290 850,260.0" fill="#fef3c7" stroke="#b45309" stroke-width="2"/>
<rect x="1060" y="220" width="200" height="80" rx="8" ry="8" fill="#3b82f6" stroke="#1e3a5f" stroke-width="2"/>
<rect x="180" y="460" width="200" height="80" rx="8" ry="8" fill="#a7f3d0" stroke="#047857" stroke-width="2"/>
<polygon points="440.0,470 470,500.0 440.0,530 410,500.0" fill="#fef3c7" stroke="#b45309" stroke-width="2"/>
<rect x="620" y="460" width="200" height="80" rx="8" ry="8" fill="#a7f3d0" stroke="#047857" stroke-width="2"/>
<polygon points="880.0,470 910,500.0 880.0,530 850,500.0" fill="#fef3c7" stroke="#b45309" stroke-width="2"/>
<rect x="1060" y="460" width="200" height="80" rx="8" ry="8" fill="#a7f3d0" stroke="#047857" stroke-width="2"/>
<rect x="180" y="700" width="200" height="80" rx="8" ry="8" fill="#ddd6fe" stroke="#6d28d9" stroke-width="2"/>
<polygon points="440.0,710 470,740.0 440.0,770 410,740.0" fill="#fef3c7" stroke="#b45309" stroke-width="2"/>
<rect x="620" y="700" width="200" height="80" rx="8" ry="8" fill="#ddd6fe" stroke="#6d28d9" stroke-width="2"/>
<polygon points="880.0,710 910,740.0 880.0,770 850,740.0" fill="#fef3c7" stroke="#b45309" stroke-width="2"/>
<rect x="1060" y="700" width="200" height="80" rx="8" ry="8" fill="#ddd6fe" stroke="#6d28d9" stroke-width="2"/>
<rect x="100" y="880" width="1200" height="80" rx="8" ry="8" fill="#fed7aa" stroke="#c2410c" stroke-width="2"/>
<path d="M 580,120 L 580,1000" fill="none" stroke="#64748b" stroke-width="1" stroke-dasharray="4 2"/>
<path d="M 1020,120 L 1020,1000" fill="none" stroke="#64748b" stroke-width="1" stroke-dasharray="4 2"/>
<path d="M 380,260 L 410,260" fill="none" stroke="#1e3a5f" stroke-width="2" marker-end="url(#arrowhead)"/>
<path d="M 470,260 L 620,260" fill="none" stroke="#1e3a5f" stroke-width="2" marker-end="url(#arrowhead)"/>
<path d="M 820,260 L 850,260" fill="none" stroke="#1e3a5f" stroke-width="2" marker-end="url(#arrowhead)"/>
<path d="M 910,260 L 1060,260" fill="none" stroke="#1e3a5f" stroke-width="2" marker-end="url(#arrowhead)"/>
<path d="M 380,500 L 410,500" fill="none" stroke="#047857" stroke-width="2" marker-end="url(#arrowhead)"/>
<path d="M 470,500 L 620,500" fill="none" stroke="#047857" stroke-width="2" marker-end="url(#arrowhead)"/>
<path d="M 820,500 L 850,500" fill="none" stroke="#047857" stroke-width="2" marker-end="url(#arrowhead)"/>
<path d="M 910,500 L 1060,500" fill="none" stroke="#047857" stroke-width="2" marker-end="url(#arrowhead)"/>
<path d="M 380,740 L 410,740" fill="none" stroke="#6d28d9" stroke-width="2" marker-end="url(#arrowhead)"/>
<path d="M 470,740 L 620,740" fill="none" stroke="#6d28d9" stroke-width="2" marker-end="url(#arrowhead)"/>
<path d="M 820,740 L 850,740" fill="none" stroke="#6d28d9" stroke-width="2" marker-end="url(#arrowhead)"/>
<path d="M 910,740 L 1060,740" fill="none" stroke="#6d28d9" stroke-width="2" marker-end="url(#arrowhead)"/>
<path d="M 440,880 L 440,290" fill="none" stroke="#c2410c" stroke-width="1" stroke-dasharray="4 2" marker-end="url(#arrowhead)"/>
<path d="M 880,880 L 880,290" fill="none" stroke="#c2410c" stroke-width="1" stroke-dasharray="4 2" marker-end="url(#arrowhead)"/>
<text x="850.0" y="28.8" fill="#1e40af" font-size="32" text-anchor="middle">Earned Autonomy — Maturity Model</text>
<text x="380.0" y="98.0" fill="#64748b" font-size="20" text-anchor="middle">Early</text>
<text x="800.0" y="98.0" fill="#64748b" font-size="20" text-anchor="middle">Proven</text>
<text x="1220.0" y="98.0" fill="#64748b" font-size="20" text-anchor="middle">Mature</text>
<text x="160" y="274.95" fill="#1e3a5f" font-size="18" text-anchor="end">Governance</text>
<text x="280.0" y="264.4" fill="#ffffff" font-size="16" text-anchor="middle">Human-directed</text>
<text x="720.0" y="264.4" fill="#ffffff" font-size="16" text-anchor="middle">Human-bounded</text>
<text x="1160.0" y="264.4" fill="#ffffff" font-size="16" text-anchor="middle">Self-governing</text>
<text x="160" y="514.95" fill="#047857" font-size="18" text-anchor="end">Funding</text>
<text x="280.0" y="504.4" fill="#374151" font-size="16" text-anchor="middle">Seeded</text>
<text x="720.0" y="504.4" fill="#374151" font-size="16" text-anchor="middle">ROI-demonstrated</text>
<text x="1160.0" y="504.4" fill="#374151" font-size="16" text-anchor="middle">Self-sustaining</text>
<text x="160" y="754.95" fill="#6d28d9" font-size="18" text-anchor="end">Experimentation</text>
<text x="280.0" y="744.4" fill="#374151" font-size="16" text-anchor="middle">Observe only</text>
<text x="720.0" y="744.4" fill="#374151" font-size="16" text-anchor="middle">Sandboxed</text>
<text x="1160.0" y="744.4" fill="#374151" font-size="16" text-anchor="middle">Self-directed</text>
<text x="700.0" y="924.4" fill="#374151" font-size="16" text-anchor="middle">Trust Ledger — transparent, inspectable, revocable</text>
<text x="441.0" y="204.4" fill="#b45309" font-size="16" text-anchor="middle">trust gate</text>
<text x="881.0" y="204.4" fill="#b45309" font-size="16" text-anchor="middle">trust gate</text>
</svg>
