<svg xmlns="http://www.w3.org/2000/svg" viewBox="-20 -20 1080 996" width="1080" height="996" font-family="Virgil, Segoe UI Emoji, sans-serif">
<rect x="-20" y="-20" width="1080" height="996" fill="#ffffff"/>
<defs>
  <marker id="arrowhead" markerWidth="10" markerHeight="10" refX="9" refY="5" orient="auto" markerUnits="strokeWidth">
    <path d="M 0 0 L 10 5 L 0 10 z" fill="#1e1e1e"/>
  </marker>
</defs>
<ellipse cx="520.0" cy="140.0" rx="100.0" ry="50.0" fill="#ddd6fe" stroke="#6d28d9" stroke-width="2"/>
<rect x="677.1281292110205" y="240.0" width="240" height="120" rx="8" ry="8" fill="#93c5fd" stroke="#1e3a5f" stroke-width="2"/>
<ellipse cx="797.1281292110205" cy="620.0" rx="100.0" ry="50.0" fill="#ddd6fe" stroke="#6d28d9" stroke-width="2"/>
<rect x="400.0" y="720.0" width="240" height="120" rx="8" ry="8" fill="#60a5fa" stroke="#1e3a5f" stroke-width="2"/>
<ellipse cx="242.8718707889796" cy="620.0" rx="100.0" ry="50.0" fill="#ddd6fe" stroke="#6d28d9" stroke-width="2"/>
<rect x="122.87187078897966" y="240.0" width="240" height="120" rx="8" ry="8" fill="#3b82f6" stroke="#1e3a5f" stroke-width="2"/>
<path d="M 602.2724133595217,187.5 L 706.1954618136544,247.5" fill="none" stroke="#475569" stroke-width="2" marker-end="url(#arrowhead)"/>
<path d="M 797.1281292110205,395.0 L 797.1281292110205,515.0" fill="none" stroke="#475569" stroke-width="2" marker-end="url(#arrowhead)"/>
<path d="M 714.8557158514988,667.5 L 610.932667397366,727.5" fill="none" stroke="#475569" stroke-width="2" marker-end="url(#arrowhead)"/>
<path d="M 437.7275866404783,732.5 L 333.80453818634567,672.5" fill="none" stroke="#475569" stroke-width="2" marker-end="url(#arrowhead)"/>
<path d="M 242.8718707889796,525.0 L 242.87187078897966,405.0" fill="none" stroke="#475569" stroke-width="2" marker-end="url(#arrowhead)"/>
<path d="M 325.14428414850136,252.5 L 429.067332602634,192.5" fill="none" stroke="#475569" stroke-width="2" marker-end="url(#arrowhead)"/>
<text x="480.0" y="25.2" fill="#1e40af" font-size="28" text-anchor="middle">Colony Memory — The Reflection Cycle</text>
<text x="520.0" y="134.675" fill="#6d28d9" font-size="17" text-anchor="middle">Events</text>
<text x="520.0" y="158.4" fill="#6d28d9" font-size="16" text-anchor="middle">Colony events occur</text>
<text x="797.1281292110205" y="276.675" fill="#1e40af" font-size="17" text-anchor="middle">Event Memory</text>
<text x="797.1281292110205" y="300.4" fill="#1e40af" font-size="16" text-anchor="middle">What happened</text>
<text x="797.1281292110205" y="326.4" fill="#1e40af" font-size="16" text-anchor="middle">Chronicler Agent</text>
<text x="797.1281292110205" y="614.675" fill="#6d28d9" font-size="17" text-anchor="middle">Reflection</text>
<text x="797.1281292110205" y="638.4" fill="#6d28d9" font-size="16" text-anchor="middle">Pattern extraction</text>
<text x="520.0" y="756.675" fill="#1e40af" font-size="17" text-anchor="middle">Lesson Memory</text>
<text x="520.0" y="780.4" fill="#1e40af" font-size="16" text-anchor="middle">What we learned</text>
<text x="520.0" y="806.4" fill="#1e40af" font-size="16" text-anchor="middle">Reflector Agent</text>
<text x="242.8718707889796" y="614.675" fill="#6d28d9" font-size="17" text-anchor="middle">Promotion</text>
<text x="242.8718707889796" y="638.4" fill="#6d28d9" font-size="16" text-anchor="middle">Recurring lessons graduate</text>
<text x="242.87187078897966" y="276.675" fill="#ffffff" font-size="17" text-anchor="middle">Constitutional Memory</text>
<text x="242.87187078897966" y="300.4" fill="#ffffff" font-size="16" text-anchor="middle">What we believe</text>
<text x="242.87187078897966" y="326.4" fill="#ffffff" font-size="16" text-anchor="middle">Constitutional Agent</text>
<text x="520.0" y="450.6" fill="#1e40af" font-size="24" text-anchor="middle">Colony Memory</text>
<text x="520.0" y="480.4" fill="#64748b" font-size="16" text-anchor="middle">The reflection cycle</text>
<text x="520.0" y="904.4" fill="#64748b" font-size="16" text-anchor="middle">Experience becomes lessons, lessons become rules, rules shape how new events are interpreted.</text>
<text x="520.0" y="954.4" fill="#94a3b8" font-size="16" text-anchor="middle">Agent Colony v1.1.6 — design, not validated</text>
</svg>
